PathFileType	4	(X/Y/Z)	E:\Qualisys_Data\Carbon_Farble_Plate\Data\Amateur_Runner\S14\T2\S14T2V25_c3d.trc
DataRate	CameraRate	NumFrames	NumMarkers	Units	OrigDataRate	OrigDataStartFrame	OrigNumFrames
200.000000	200.000000	4	39	mm	200.000000	0	317
Frame#	Time	LSHO			RSHO			LICST			RICST			LASIS			LHEEL			RASIS			LTROC			RTROC			SACR			LTH1			LSK4			LTH2			LTH3			RHM5			LSK2			LTH4			RTH1			LTOE			RTH2			RTH3			RTH4			LLEP			RLEP			LSK1			LSK3			RSK1			LHM5			RSK2			LFT1			RSK3			RSK4			LLME			RLME			RTOE			RHEEL			RFT1			RFT2			LFT2			
		X1	Y1	Z1	X2	Y2	Z2	X3	Y3	Z3	X4	Y4	Z4	X5	Y5	Z5	X6	Y6	Z6	X7	Y7	Z7	X8	Y8	Z8	X9	Y9	Z9	X10	Y10	Z10	X11	Y11	Z11	X12	Y12	Z12	X13	Y13	Z13	X14	Y14	Z14	X15	Y15	Z15	X16	Y16	Z16	X17	Y17	Z17	X18	Y18	Z18	X19	Y19	Z19	X20	Y20	Z20	X21	Y21	Z21	X22	Y22	Z22	X23	Y23	Z23	X24	Y24	Z24	X25	Y25	Z25	X26	Y26	Z26	X27	Y27	Z27	X28	Y28	Z28	X29	Y29	Z29	X30	Y30	Z30	X31	Y31	Z31	X32	Y32	Z32	X33	Y33	Z33	X34	Y34	Z34	X35	Y35	Z35	X36	Y36	Z36	X37	Y37	Z37	X38	Y38	Z38	X39	Y39	Z39	

1	0	-3509.579833984375	1490.673828125	-531.5198974609375	-3555.947265625	1498.123046875	-241.9064178466797	-3588.458740234375	1041.583984375	-513.69287109375	-3569.4833984375	1048.790405273438	-240.8381042480469	-3557.102294921875	984.9531860351562	-494.6539916992188	-4200.56005859375	415.0368957519531	-406.5029602050781	-3546.19189453125	1005.771850585938	-263.0385437011719	-3714.468017578125	954.1746215820312	-529.5660400390625	-3662.605224609375	933.7667846679688	-194.6368560791016	-3716.91357421875	1056.061645507812	-380.4280395507812	-3753.8525390625	727.9813232421875	-536.5919189453125	-4057.5556640625	514.2606811523438	-484.9299011230469	-3816.614990234375	760.9218139648438	-501.67431640625	-3786.387451171875	635.380615234375	-518.1987915039062	-3287.7607421875	160.4243316650391	-225.7681121826172	-3976.928955078125	571.3294677734375	-501.1475524902344	-3854.171630859375	670.3695678710938	-489.321044921875	-3445.135009765625	781.7216796875	-213.0225677490234	-4171.07861328125	162.2332458496094	-464.1097412109375	-3513.181396484375	744.310302734375	-203.4335174560547	-3395.368896484375	697.6591186523438	-238.476318359375	-3464.325927734375	655.7987060546875	-224.2870330810547	-3869.16552734375	595.7328491210938	-505.474853515625	-3412.560791015625	607.34326171875	-226.3627624511719	-3929.8076171875	504.9206237792969	-511.4830627441406	-4012.866943359375	446.9324645996094	-499.9889526367188	-3387.32275390625	484.9787902832031	-226.4761352539062	-4213.79345703125	230.3520660400391	-512.8025512695312	-3471.86474609375	478.2712707519531	-224.1925811767578	-4221.0263671875	396.0194091796875	-379.4041748046875	-3386.382080078125	381.8566589355469	-237.8343963623047	-3463.54833984375	382.6050109863281	-236.1043548583984	-4174.06982421875	376.4832763671875	-474.6946411132812	-3420.94580078125	203.7691192626953	-258.5873107910156	-3211.34423828125	193.6980895996094	-281.4251708984375	-3470.39208984375	168.2349395751953	-315.3598022460938	-3448.274658203125	142.4941253662109	-344.9515075683594	-3465.87939453125	139.1304626464844	-290.9640502929688	-4236.3935546875	407.3229675292969	-433.6304016113281
2	0.005	-3487.779052734375	1491.360717773438	-530.4944458007812	-3534.873779296875	1498.934692382812	-240.7566070556641	-3566.5107421875	1042.776123046875	-513.90234375	-3546.801025390625	1048.143188476562	-240.74560546875	-3534.77685546875	984.5762329101562	-494.1568908691406	-4183.8203125	425.1614685058594	-403.2774963378906	-3523.1953125	1005.960266113281	-263.6549987792969	-3690.995361328125	953.7606201171876	-529.7627563476562	-3647.50634765625	933.8992309570312	-194.7409057617188	-3694.6328125	1056.119506835938	-380.3387756347656	-3729.98779296875	727.8833618164062	-536.47900390625	-4036.2333984375	520.3279418945312	-483.9364013671875	-3793.144775390625	760.4547119140625	-501.9442749023438	-3762.770263671875	635.2218017578125	-518.394287109375	-3253.285888671875	163.3264007568359	-226.0079345703125	-3954.306640625	575.332763671875	-500.4605407714844	-3830.740966796875	670.0611572265625	-489.7312316894531	-3424.72900390625	778.0021362304688	-212.8959808349609	-4161.982421875	173.1783752441406	-465.0826110839844	-3493.18701171875	742.5432739257812	-202.6271820068359	-3376.623291015625	693.7424926757812	-238.2887878417969	-3447.15087890625	653.2012939453125	-223.9873504638672	-3845.810546875	596.1959228515625	-506.4879150390625	-3394.302978515625	604.476806640625	-226.5629577636719	-3907.8251953125	507.6296691894531	-512.7156982421875	-3994.464599609375	451.921875	-500.3700866699219	-3365.632080078125	482.5300598144531	-225.4754333496094	-4200.03173828125	241.9328155517578	-512.657470703125	-3449.784423828125	473.0179443359375	-225.4175262451172	-4201.9765625	406.3140563964844	-377.09423828125	-3360.617431640625	379.6893920898438	-237.7145233154297	-3437.92333984375	377.5955200195312	-236.5313568115234	-4156.9951171875	387.6695861816406	-473.1852722167969	-3386.44287109375	200.7291717529297	-258.3921203613281	-3176.622314453125	200.3235626220703	-280.1232604980469	-3433.627685546875	162.0181121826172	-315.3751220703125	-3410.44921875	137.7452697753906	-344.5732116699219	-3429.0654296875	133.7936859130859	-291.0624389648438	-4217.11474609375	420.1273803710938	-432.0907287597656
3	0.01	-3465.498291015625	1492.30322265625	-529.7137451171875	-3513.6552734375	1499.162475585938	-239.545166015625	-3544.90380859375	1043.002685546875	-513.8305053710938	-3523.764404296875	1047.84521484375	-241.2735595703125	-3511.542236328125	986.1444091796876	-494.2473754882812	-4164.0693359375	435.1875610351562	-400.496826171875	-3502.582275390625	1005.103332519531	-263.36279296875	-3669.077880859375	953.9456176757812	-529.9805297851562	-3625.52880859375	932.8757934570312	-196.4279479980469	-3672.9375	1055.740844726562	-380.263671875	-3706.689453125	727.4091186523438	-536.9762573242188	-4015.095458984375	527.4988403320312	-482.9923706054688	-3769.532958984375	759.6315307617188	-502.6245422363281	-3739.029541015625	634.3555908203125	-519.0562133789062	-3218.1044921875	165.8191528320312	-224.7066345214844	-3930.689453125	579.3063354492188	-500.0940856933594	-3806.66259765625	669.1825561523438	-490.0902709960938	-3405.0576171875	774.22705078125	-211.8441314697266	-4150.97412109375	183.0934295654297	-464.1287536621094	-3473.789306640625	738.8494873046875	-200.7478179931641	-3358.76953125	689.2149658203125	-238.5036773681641	-3429.052734375	648.628662109375	-222.1903381347656	-3822.793212890625	597.2130737304688	-507.4732055664062	-3376.658935546875	600.2688598632812	-226.8113708496094	-3886.859130859375	510.7127685546875	-513.9209594726562	-3975.751708984375	457.7867126464844	-500.290771484375	-3345.44482421875	480.8167419433594	-225.1673583984375	-4187.94384765625	255.9947357177734	-512.240234375	-3429.047607421875	467.9223937988281	-225.3818664550781	-4186.935546875	417.6095581054688	-377.75146484375	-3335.732421875	378.8294067382812	-237.0565032958984	-3412.137451171875	373.1335144042969	-236.8427734375	-4141.9638671875	398.3823547363281	-473.2158813476562	-3352.7265625	197.3497009277344	-257.4425964355469	-3143.020263671875	206.5921630859375	-278.5458068847656	-3398.2783203125	156.5439910888672	-314.6964416503906	-3373.620849609375	133.0898742675781	-343.8278503417969	-3392.397705078125	128.1271209716797	-290.5729370117188	-4198.4306640625	431.6217956542969	-429.782470703125
4	0.015	-3443.335693359375	1492.2529296875	-528.6726684570312	-3493.4208984375	1499.643798828125	-239.0345306396484	-3521.968994140625	1043.65185546875	-512.7875366210938	-3504.83154296875	1047.117431640625	-241.0184783935547	-3489.7294921875	985.4053344726562	-493.5121765136719	-4143.3212890625	445.77587890625	-398.85888671875	-3481.166015625	1005.286926269531	-263.5287170410156	-3645.630126953125	953.7556762695312	-529.8389892578125	-3605.031494140625	930.67919921875	-196.1149597167969	-3651.09716796875	1055.305541992188	-379.7907409667969	-3681.083251953125	726.529541015625	-538.2119750976562	-3992.48876953125	533.197265625	-481.667724609375	-3745.656982421875	758.98046875	-503.1546936035156	-3714.218505859375	633.3256225585938	-519.8031005859375	-3185.144775390625	168.4185791015625	-223.3709106445312	-3907.847412109375	583.4650268554688	-500.2059020996094	-3783.548583984375	668.20654296875	-490.976806640625	-3384.624267578125	770.6066284179688	-211.7377777099609	-4141.44775390625	193.9661102294922	-464.7747802734375	-3454.666259765625	735.8203735351562	-199.7524871826172	-3337.98681640625	685.344482421875	-239.1157684326172	-3411.45458984375	646.1154174804688	-221.8855743408203	-3798.997314453125	597.5564575195312	-508.2715454101562	-3360.239013671875	596.7636108398438	-225.283447265625	-3867.744140625	513.3815307617188	-512.7268676757812	-3954.736328125	462.3191833496094	-499.0775756835938	-3323.122802734375	478.8647766113281	-225.8641052246094	-4174.4228515625	267.4707641601562	-511.7654418945312	-3406.774169921875	462.8692932128906	-226.6789703369141	-4167.51318359375	428.0208129882812	-375.235595703125	-3310.105224609375	376.433349609375	-236.5009613037109	-3384.891845703125	367.8967895507812	-236.9175415039062	-4123.10595703125	408.6741027832031	-471.5394592285156	-3321.101318359375	195.1602935791016	-257.3973693847656	-3111.664306640625	212.8284149169922	-277.05224609375	-3366.180419921875	152.1833038330078	-313.8550720214844	-3338.452392578125	129.8938140869141	-343.4261779785156	-3351.01416015625	126.274284362793	-289.4348449707031	-4180.46630859375	445.0607604980469	-427.6170959472656
